<svg width="443" height="201" viewBox="0 0 443 201" fill="none" xmlns="http://www.w3.org/2000/svg">
<path d="M0.976808 43.1852V0H7.20466V18.6236H28.6595V0H34.9171V43.1852H28.6595V24.5316H7.20466V43.1852H0.976808Z" fill="#0D0E11"/>
<path d="M51.1847 44.0849C48.8008 44.0849 46.8043 43.645 45.1952 42.7653C43.5861 41.8656 42.3644 40.686 41.53 39.2265C40.7155 37.747 40.3083 36.1276 40.3083 34.3682C40.3083 32.7288 40.5963 31.2893 41.1724 30.0497C41.7485 28.8101 42.6027 27.7605 43.7351 26.9008C44.8674 26.0211 46.258 25.3113 47.9068 24.7715C49.3372 24.3516 50.9562 23.9818 52.764 23.6619C54.5717 23.342 56.4689 23.0421 58.4555 22.7622C60.4619 22.4823 62.4484 22.2024 64.4151 21.9225L62.1504 23.182C62.1902 20.6429 61.6538 18.7636 60.5413 17.544C59.4487 16.3044 57.5615 15.6846 54.8797 15.6846C53.1911 15.6846 51.6416 16.0845 50.2311 16.8842C48.8207 17.6639 47.8373 18.9635 47.2811 20.7829L41.4704 18.9835C42.265 16.2044 43.7748 13.9952 45.9998 12.3558C48.2446 10.7163 51.2244 9.8966 54.9393 9.8966C57.8198 9.8966 60.3228 10.3964 62.4484 11.3961C64.5939 12.3757 66.1633 13.9352 67.1566 16.0745C67.6731 17.1341 67.9909 18.2537 68.1101 19.4333C68.2293 20.6129 68.2889 21.8825 68.2889 23.242V43.1852H62.7762V35.7777L63.849 36.7374C62.518 39.2165 60.8195 41.0659 58.7534 42.2855C56.7073 43.4851 54.1844 44.0849 51.1847 44.0849ZM52.2872 38.9566C54.0552 38.9566 55.575 38.6467 56.8463 38.0269C58.1177 37.3872 59.1408 36.5774 59.9156 35.5978C60.6903 34.6181 61.1969 33.5985 61.4353 32.5388C61.773 31.5792 61.9617 30.4995 62.0015 29.2999C62.0611 28.1003 62.0909 27.1407 62.0909 26.4209L64.1171 27.1707C62.1504 27.4706 60.3625 27.7405 58.7534 27.9804C57.1443 28.2203 55.6842 28.4602 54.3731 28.7001C53.0818 28.9201 51.9296 29.19 50.9165 29.5099C50.0623 29.8098 49.2974 30.1696 48.622 30.5895C47.9664 31.0094 47.44 31.5192 47.0427 32.119C46.6652 32.7188 46.4765 33.4485 46.4765 34.3082C46.4765 35.1479 46.6851 35.9277 47.1023 36.6474C47.5195 37.3472 48.1552 37.907 49.0094 38.3268C49.8636 38.7467 50.9562 38.9566 52.2872 38.9566Z" fill="#0D0E11"/>
<path d="M82.3719 43.1852L70.6909 10.7963H76.9784L85.5305 35.3279L94.0826 10.7963H100.37L88.6891 43.1852H82.3719Z" fill="#0D0E11"/>
<path d="M117.656 44.0849C114.458 44.0849 111.647 43.3851 109.223 41.9856C106.82 40.5661 104.942 38.5967 103.592 36.0776C102.261 33.5385 101.595 30.5995 101.595 27.2606C101.595 23.7219 102.251 20.6529 103.562 18.0538C104.893 15.4547 106.74 13.4454 109.104 12.0259C111.468 10.6064 114.22 9.8966 117.358 9.8966C120.636 9.8966 123.427 10.6663 125.732 12.2058C128.036 13.7253 129.754 15.8945 130.887 18.7136C132.039 21.5326 132.496 24.8815 132.258 28.7601H126.03V26.4809C125.99 22.7222 125.275 19.9431 123.884 18.1438C122.513 16.3444 120.418 15.4447 117.597 15.4447C114.478 15.4447 112.134 16.4344 110.564 18.4137C108.995 20.393 108.21 23.252 108.21 26.9907C108.21 30.5495 108.995 33.3086 110.564 35.2679C112.134 37.2072 114.398 38.1769 117.358 38.1769C119.305 38.1769 120.984 37.737 122.394 36.8573C123.825 35.9577 124.937 34.6781 125.732 33.0187L131.84 34.968C130.589 37.867 128.692 40.1162 126.149 41.7157C123.606 43.2951 120.775 44.0849 117.656 44.0849ZM106.184 28.7601V23.8718H129.159V28.7601H106.184Z" fill="#0D0E11"/>
<path d="M152.841 57.5802L159.069 40.5161L159.158 45.5544L145.123 10.7963H151.619L162.108 37.6371H160.201L170.213 10.7963H176.53L158.771 57.5802H152.841Z" fill="#0D0E11"/>
<path d="M273.516 44.0549C271.291 44.0549 269.424 43.695 267.914 42.9752C266.404 42.2555 265.173 41.3158 264.219 40.1562C263.286 38.9766 262.57 37.6971 262.074 36.3175C261.577 34.938 261.239 33.5885 261.061 32.2689C260.882 30.9494 260.792 29.7898 260.792 28.7901V10.7963H267.11V26.7208C267.11 27.9804 267.209 29.2799 267.408 30.6195C267.626 31.939 268.024 33.1686 268.6 34.3082C269.196 35.4478 270.02 36.3675 271.073 37.0673C272.146 37.767 273.536 38.1169 275.245 38.1169C276.357 38.1169 277.41 37.937 278.403 37.5771C279.397 37.1972 280.261 36.5974 280.996 35.7777C281.751 34.958 282.337 33.8784 282.754 32.5388C283.191 31.1993 283.409 29.5698 283.409 27.6505L287.283 29.12C287.283 32.059 286.737 34.6581 285.644 36.9173C284.552 39.1566 282.982 40.906 280.936 42.1655C278.89 43.4251 276.417 44.0549 273.516 44.0549ZM284.154 43.1852V33.8284H283.409V10.7963H289.697V43.1852H284.154Z" fill="#0D0E11"/>
<path d="M321.875 44.0849C318.676 44.0849 315.866 43.3851 313.442 41.9856C311.038 40.5661 309.161 38.5967 307.81 36.0776C306.479 33.5385 305.814 30.5995 305.814 27.2606C305.814 23.7219 306.469 20.6529 307.78 18.0538C309.111 15.4547 310.959 13.4454 313.323 12.0259C315.687 10.6064 318.438 9.8966 321.577 9.8966C324.855 9.8966 327.646 10.6663 329.95 12.2058C332.255 13.7253 333.973 15.8945 335.105 18.7136C336.258 21.5326 336.714 24.8815 336.476 28.7601H330.248V26.4809C330.208 22.7222 329.493 19.9431 328.103 18.1438C326.732 16.3444 324.636 15.4447 321.815 15.4447C318.696 15.4447 316.352 16.4344 314.783 18.4137C313.213 20.393 312.429 23.252 312.429 26.9907C312.429 30.5495 313.213 33.3086 314.783 35.2679C316.352 37.2072 318.617 38.1769 321.577 38.1769C323.524 38.1769 325.202 37.737 326.613 36.8573C328.043 35.9577 329.156 34.6781 329.95 33.0187L336.059 34.968C334.807 37.867 332.91 40.1162 330.367 41.7157C327.825 43.2951 324.994 44.0849 321.875 44.0849ZM310.402 28.7601V23.8718H333.377V28.7601H310.402Z" fill="#0D0E11"/>
<path d="M349.507 43.1852L337.826 10.7963H344.113L352.665 35.3279L361.217 10.7963H367.505L355.824 43.1852H349.507Z" fill="#0D0E11"/>
<path d="M384.791 44.0849C381.593 44.0849 378.782 43.3851 376.358 41.9856C373.955 40.5661 372.077 38.5967 370.726 36.0776C369.395 33.5385 368.73 30.5995 368.73 27.2606C368.73 23.7219 369.385 20.6529 370.697 18.0538C372.028 15.4547 373.875 13.4454 376.239 12.0259C378.603 10.6064 381.354 9.8966 384.493 9.8966C387.771 9.8966 390.562 10.6663 392.867 12.2058C395.171 13.7253 396.889 15.8945 398.022 18.7136C399.174 21.5326 399.631 24.8815 399.392 28.7601H393.165V26.4809C393.125 22.7222 392.41 19.9431 391.019 18.1438C389.648 16.3444 387.553 15.4447 384.732 15.4447C381.613 15.4447 379.269 16.4344 377.699 18.4137C376.13 20.393 375.345 23.252 375.345 26.9907C375.345 30.5495 376.13 33.3086 377.699 35.2679C379.269 37.2072 381.533 38.1769 384.493 38.1769C386.44 38.1769 388.119 37.737 389.529 36.8573C390.959 35.9577 392.072 34.6781 392.867 33.0187L398.975 34.968C397.724 37.867 395.827 40.1162 393.284 41.7157C390.741 43.2951 387.91 44.0849 384.791 44.0849ZM373.319 28.7601V23.8718H396.293V28.7601H373.319Z" fill="#0D0E11"/>
<path d="M404.886 43.1852V10.7963H410.428V18.6536L409.654 17.6339C410.051 16.5943 410.568 15.6446 411.203 14.7849C411.839 13.9052 412.574 13.1855 413.408 12.6257C414.223 12.0259 415.127 11.566 416.12 11.2461C417.133 10.9063 418.166 10.7063 419.219 10.6463C420.272 10.5664 421.285 10.6164 422.258 10.7963V16.6743C421.206 16.3944 420.033 16.3144 418.742 16.4344C417.471 16.5543 416.299 16.9642 415.226 17.6639C414.213 18.3237 413.408 19.1234 412.812 20.0631C412.236 21.0028 411.819 22.0524 411.561 23.212C411.303 24.3516 411.173 25.5612 411.173 26.8408V43.1852H404.886Z" fill="#0D0E11"/>
<path d="M21.9912 114.68C19.9649 115.08 17.9783 115.25 16.0315 115.19C14.0847 115.13 12.3464 114.75 10.8168 114.051C9.28715 113.351 8.13494 112.251 7.36019 110.752C6.66489 109.412 6.28745 108.053 6.22785 106.673C6.18812 105.274 6.16825 103.694 6.16825 101.935V73.2947H12.4259V101.635C12.4259 102.935 12.4358 104.064 12.4557 105.024C12.4954 105.983 12.704 106.793 13.0815 107.453C13.7966 108.693 14.929 109.402 16.4785 109.582C18.0479 109.742 19.8854 109.672 21.9912 109.372V114.68ZM0 87.3299V82.2916H21.9912V87.3299H0Z" fill="#0D0E11"/>
<path d="M27.5844 114.68V82.2916H33.1269V90.1489L32.3521 89.1293C32.7495 88.0896 33.266 87.14 33.9017 86.2802C34.5373 85.4005 35.2724 84.6808 36.1067 84.121C36.9212 83.5212 37.8251 83.0614 38.8184 82.7415C39.8315 82.4016 40.8645 82.2016 41.9174 82.1417C42.9703 82.0617 43.9834 82.1117 44.9568 82.2916V88.1696C43.904 87.8897 42.7319 87.8097 41.4406 87.9297C40.1692 88.0496 38.9972 88.4595 37.9244 89.1593C36.9113 89.819 36.1067 90.6188 35.5108 91.5584C34.9347 92.4981 34.5175 93.5477 34.2592 94.7074C34.001 95.847 33.8719 97.0565 33.8719 98.3361V114.68H27.5844Z" fill="#0D0E11"/>
<path d="M50.0356 76.9834V70.8955H56.2634V76.9834H50.0356ZM50.0356 114.68V82.2916H56.2634V114.68H50.0356Z" fill="#0D0E11"/>
<path d="M78.2932 115.58C75.0949 115.58 72.2839 114.88 69.8603 113.481C67.4566 112.061 65.5793 110.092 64.2284 107.573C62.8974 105.034 62.2319 102.095 62.2319 98.756C62.2319 95.2172 62.8875 92.1482 64.1986 89.5491C65.5296 86.95 67.3771 84.9407 69.7411 83.5212C72.1051 82.1017 74.8565 81.3919 77.9953 81.3919C81.2731 81.3919 84.0642 82.1617 86.3686 83.7011C88.673 85.2206 90.3914 87.3899 91.5237 90.2089C92.6759 93.0279 93.1328 96.3768 92.8944 100.255H86.6666V97.9762C86.6268 94.2175 85.9117 91.4385 84.5211 89.6391C83.1504 87.8397 81.0546 86.94 78.2336 86.94C75.1148 86.94 72.7706 87.9297 71.2012 89.909C69.6319 91.8883 68.8472 94.7473 68.8472 98.4861C68.8472 102.045 69.6319 104.804 71.2012 106.763C72.7706 108.703 75.0353 109.672 77.9953 109.672C79.9421 109.672 81.6207 109.232 83.0312 108.353C84.4615 107.453 85.574 106.173 86.3686 104.514L92.4772 106.463C91.2257 109.362 89.3286 111.612 86.7858 113.211C84.243 114.79 81.4121 115.58 78.2932 115.58ZM66.8209 100.255V95.3671H89.7954V100.255H66.8209Z" fill="#0D0E11"/>
<path d="M111.172 115.58C108.172 115.58 105.579 114.83 103.394 113.331C101.229 111.831 99.5502 109.792 98.3582 107.213C97.1862 104.614 96.6001 101.695 96.6001 98.4561C96.6001 95.1972 97.1961 92.2882 98.388 89.7291C99.58 87.1499 101.269 85.1206 103.454 83.6411C105.659 82.1417 108.271 81.3919 111.291 81.3919C114.33 81.3919 116.883 82.1417 118.949 83.6411C121.035 85.1206 122.604 87.1499 123.657 89.7291C124.73 92.3082 125.266 95.2172 125.266 98.4561C125.266 101.695 124.73 104.604 123.657 107.183C122.584 109.762 121.005 111.811 118.919 113.331C116.833 114.83 114.251 115.58 111.172 115.58ZM112.036 109.912C114.082 109.912 115.751 109.422 117.042 108.443C118.333 107.463 119.277 106.113 119.873 104.394C120.469 102.675 120.767 100.695 120.767 98.4561C120.767 96.2168 120.459 94.2375 119.843 92.5181C119.247 90.7987 118.313 89.4592 117.042 88.4995C115.79 87.5398 114.191 87.06 112.244 87.06C110.178 87.06 108.48 87.5698 107.149 88.5894C105.818 89.6091 104.824 90.9786 104.169 92.698C103.533 94.4174 103.215 96.3368 103.215 98.4561C103.215 100.595 103.533 102.535 104.169 104.274C104.824 105.993 105.798 107.363 107.089 108.383C108.4 109.402 110.049 109.912 112.036 109.912ZM120.767 114.68V91.3785H120.051V71.4953H126.309V114.68H120.767Z" fill="#0D0E11"/>
<path d="M144.194 114.68V71.4953H161.536C161.953 71.4953 162.47 71.5153 163.086 71.5553C163.702 71.5753 164.288 71.6353 164.844 71.7352C167.228 72.1151 169.214 72.9348 170.804 74.1944C172.413 75.454 173.615 77.0434 174.409 78.9628C175.204 80.8821 175.601 83.0014 175.601 85.3206C175.601 87.6598 175.204 89.789 174.409 91.7084C173.615 93.6277 172.413 95.2172 170.804 96.4767C169.214 97.7363 167.228 98.556 164.844 98.9359C164.288 99.0159 163.692 99.0758 163.056 99.1158C162.44 99.1558 161.934 99.1758 161.536 99.1758H150.422V114.68H144.194ZM150.422 93.2379H161.298C161.695 93.2379 162.132 93.2179 162.609 93.1779C163.106 93.1379 163.572 93.0679 164.01 92.9679C165.281 92.668 166.304 92.1182 167.079 91.3185C167.854 90.4988 168.41 89.5591 168.747 88.4995C169.085 87.4398 169.254 86.3802 169.254 85.3206C169.254 84.2609 169.085 83.2113 168.747 82.1717C168.41 81.112 167.854 80.1823 167.079 79.3826C166.304 78.5629 165.281 78.0031 164.01 77.7032C163.572 77.5832 163.106 77.5033 162.609 77.4633C162.132 77.4233 161.695 77.4033 161.298 77.4033H150.422V93.2379Z" fill="#0D0E11"/>
<path d="M184.717 129.076L190.944 112.011L191.034 117.05L176.999 82.2916H183.495L193.984 109.132H192.077L202.089 82.2916H208.406L190.646 129.076H184.717Z" fill="#0D0E11"/>
<path d="M232.684 114.68C230.658 115.08 228.671 115.25 226.724 115.19C224.777 115.13 223.039 114.75 221.51 114.051C219.98 113.351 218.828 112.251 218.053 110.752C217.358 109.412 216.98 108.053 216.921 106.673C216.881 105.274 216.861 103.694 216.861 101.935V73.2947H223.119V101.635C223.119 102.935 223.129 104.064 223.149 105.024C223.188 105.983 223.397 106.793 223.774 107.453C224.489 108.693 225.622 109.402 227.171 109.582C228.741 109.742 230.578 109.672 232.684 109.372V114.68ZM210.693 87.3299V82.2916H232.684V87.3299H210.693Z" fill="#0D0E11"/>
<path d="M260.864 114.68V98.756C260.864 97.4964 260.755 96.2068 260.537 94.8873C260.338 93.5477 259.941 92.3082 259.345 91.1686C258.769 90.029 257.944 89.1093 256.871 88.4095C255.818 87.7098 254.438 87.3599 252.729 87.3599C251.617 87.3599 250.564 87.5498 249.571 87.9297C248.578 88.2896 247.703 88.8793 246.949 89.6991C246.214 90.5188 245.627 91.5984 245.19 92.938C244.773 94.2775 244.565 95.9069 244.565 97.8263L240.691 96.3568C240.691 93.4178 241.237 90.8287 242.33 88.5894C243.422 86.3302 244.992 84.5708 247.038 83.3113C249.084 82.0517 251.557 81.4219 254.458 81.4219C256.683 81.4219 258.55 81.7818 260.06 82.5015C261.57 83.2213 262.791 84.171 263.725 85.3506C264.679 86.5102 265.404 87.7797 265.9 89.1593C266.397 90.5388 266.735 91.8883 266.913 93.2079C267.092 94.5274 267.182 95.687 267.182 96.6867V114.68H260.864ZM238.247 114.68V71.4953H243.82V94.7973H244.565V114.68H238.247Z" fill="#0D0E11"/>
<path d="M105.726 186.176L95.8923 153.757L102.061 153.787L108.795 176.009L115.589 153.787H120.953L127.747 176.009L134.481 153.787H140.62L130.786 186.176H125.78L118.271 162.724L110.732 186.176H105.726Z" fill="#0D0E11"/>
<path d="M157.873 187.076C154.675 187.076 151.864 186.376 149.44 184.976C147.037 183.557 145.159 181.587 143.808 179.068C142.477 176.529 141.812 173.59 141.812 170.251C141.812 166.712 142.468 163.644 143.779 161.044C145.11 158.445 146.957 156.436 149.321 155.017C151.685 153.597 154.437 152.887 157.575 152.887C160.853 152.887 163.644 153.657 165.949 155.196C168.253 156.716 169.971 158.885 171.104 161.704C172.256 164.523 172.713 167.872 172.474 171.751H166.247V169.472C166.207 165.713 165.492 162.934 164.101 161.134C162.73 159.335 160.635 158.435 157.814 158.435C154.695 158.435 152.351 159.425 150.781 161.404C149.212 163.384 148.427 166.243 148.427 169.981C148.427 173.54 149.212 176.299 150.781 178.259C152.351 180.198 154.615 181.168 157.575 181.168C159.522 181.168 161.201 180.728 162.611 179.848C164.042 178.948 165.154 177.669 165.949 176.009L172.057 177.959C170.806 180.858 168.909 183.107 166.366 184.706C163.823 186.286 160.992 187.076 157.873 187.076ZM146.401 171.751V166.862H169.375V171.751H146.401Z" fill="#0D0E11"/>
<path d="M177.968 186.176V153.787H183.511V161.644L182.736 160.625C183.133 159.585 183.65 158.635 184.285 157.776C184.921 156.896 185.656 156.176 186.49 155.616C187.305 155.017 188.209 154.557 189.202 154.237C190.215 153.897 191.248 153.697 192.301 153.637C193.354 153.557 194.367 153.607 195.341 153.787V159.665C194.288 159.385 193.116 159.305 191.824 159.425C190.553 159.545 189.381 159.955 188.308 160.655C187.295 161.314 186.49 162.114 185.894 163.054C185.318 163.993 184.901 165.043 184.643 166.203C184.385 167.342 184.256 168.552 184.256 169.831V186.176H177.968Z" fill="#0D0E11"/>
<path d="M213.515 187.076C210.316 187.076 207.505 186.376 205.082 184.976C202.678 183.557 200.801 181.587 199.45 179.068C198.119 176.529 197.453 173.59 197.453 170.251C197.453 166.712 198.109 163.644 199.42 161.044C200.751 158.445 202.599 156.436 204.963 155.017C207.327 153.597 210.078 152.887 213.217 152.887C216.495 152.887 219.286 153.657 221.59 155.196C223.894 156.716 225.613 158.885 226.745 161.704C227.897 164.523 228.354 167.872 228.116 171.751H221.888V169.472C221.848 165.713 221.133 162.934 219.743 161.134C218.372 159.335 216.276 158.435 213.455 158.435C210.336 158.435 207.992 159.425 206.423 161.404C204.853 163.384 204.069 166.243 204.069 169.981C204.069 173.54 204.853 176.299 206.423 178.259C207.992 180.198 210.257 181.168 213.217 181.168C215.164 181.168 216.842 180.728 218.253 179.848C219.683 178.948 220.795 177.669 221.59 176.009L227.699 177.959C226.447 180.858 224.55 183.107 222.007 184.706C219.464 186.286 216.634 187.076 213.515 187.076ZM202.042 171.751V166.862H225.017V171.751H202.042Z" fill="#0D0E11"/>
<path d="M246.393 187.076C243.393 187.076 240.801 186.326 238.616 184.826C236.45 183.327 234.772 181.287 233.58 178.708C232.408 176.109 231.822 173.19 231.822 169.951C231.822 166.692 232.418 163.783 233.609 161.224C234.801 158.645 236.49 156.616 238.675 155.136C240.88 153.637 243.493 152.887 246.512 152.887C249.552 152.887 252.104 153.637 254.17 155.136C256.256 156.616 257.826 158.645 258.878 161.224C259.951 163.803 260.488 166.712 260.488 169.951C260.488 173.19 259.951 176.099 258.878 178.678C257.806 181.257 256.226 183.307 254.141 184.826C252.055 186.326 249.472 187.076 246.393 187.076ZM247.257 181.407C249.303 181.407 250.972 180.918 252.263 179.938C253.555 178.958 254.498 177.609 255.094 175.889C255.69 174.17 255.988 172.191 255.988 169.951C255.988 167.712 255.68 165.733 255.064 164.013C254.468 162.294 253.535 160.954 252.263 159.995C251.012 159.035 249.413 158.555 247.466 158.555C245.4 158.555 243.701 159.065 242.37 160.085C241.039 161.104 240.046 162.474 239.39 164.193C238.755 165.913 238.437 167.832 238.437 169.951C238.437 172.091 238.755 174.03 239.39 175.769C240.046 177.489 241.019 178.858 242.311 179.878C243.622 180.898 245.271 181.407 247.257 181.407ZM255.988 186.176V162.874H255.273V142.991H261.531V186.176H255.988Z" fill="#0D0E11"/>
<path d="M276.435 186.176L290.381 142.991H299.35L313.296 186.176H306.83L293.986 146.769H295.596L282.902 186.176H276.435ZM283.676 176.429V170.551H306.085V176.429H283.676Z" fill="#0D0E11"/>
<path d="M332.558 187.076C329.478 187.076 326.896 186.326 324.81 184.826C322.724 183.307 321.145 181.257 320.072 178.678C318.999 176.099 318.463 173.19 318.463 169.951C318.463 166.712 318.989 163.803 320.042 161.224C321.115 158.645 322.684 156.616 324.75 155.136C326.836 153.637 329.399 152.887 332.438 152.887C335.458 152.887 338.06 153.637 340.246 155.136C342.451 156.616 344.149 158.645 345.341 161.224C346.533 163.783 347.129 166.692 347.129 169.951C347.129 173.19 346.533 176.109 345.341 178.708C344.169 181.287 342.49 183.327 340.305 184.826C338.14 186.326 335.557 187.076 332.558 187.076ZM317.42 200.571V153.787H322.963V177.089H323.678V200.571H317.42ZM331.693 181.407C333.68 181.407 335.319 180.898 336.61 179.878C337.921 178.858 338.895 177.489 339.53 175.769C340.186 174.03 340.514 172.091 340.514 169.951C340.514 167.832 340.186 165.913 339.53 164.193C338.895 162.474 337.911 161.104 336.58 160.085C335.249 159.065 333.551 158.555 331.485 158.555C329.538 158.555 327.929 159.035 326.658 159.995C325.406 160.954 324.472 162.294 323.857 164.013C323.261 165.733 322.963 167.712 322.963 169.951C322.963 172.191 323.261 174.17 323.857 175.889C324.452 177.609 325.396 178.958 326.687 179.938C327.979 180.918 329.647 181.407 331.693 181.407Z" fill="#0D0E11"/>
<path d="M367.624 187.076C364.545 187.076 361.963 186.326 359.877 184.826C357.791 183.307 356.211 181.257 355.139 178.678C354.066 176.099 353.53 173.19 353.53 169.951C353.53 166.712 354.056 163.803 355.109 161.224C356.182 158.645 357.751 156.616 359.817 155.136C361.903 153.637 364.466 152.887 367.505 152.887C370.525 152.887 373.127 153.637 375.312 155.136C377.517 156.616 379.216 158.645 380.408 161.224C381.6 163.783 382.196 166.692 382.196 169.951C382.196 173.19 381.6 176.109 380.408 178.708C379.236 181.287 377.557 183.327 375.372 184.826C373.206 186.326 370.624 187.076 367.624 187.076ZM352.487 200.571V153.787H358.029V177.089H358.744V200.571H352.487ZM366.76 181.407C368.747 181.407 370.386 180.898 371.677 179.878C372.988 178.858 373.961 177.489 374.597 175.769C375.253 174.03 375.58 172.091 375.58 169.951C375.58 167.832 375.253 165.913 374.597 164.193C373.961 162.474 372.978 161.104 371.647 160.085C370.316 159.065 368.617 158.555 366.551 158.555C364.605 158.555 362.996 159.035 361.724 159.995C360.473 160.954 359.539 162.294 358.923 164.013C358.327 165.733 358.029 167.712 358.029 169.951C358.029 172.191 358.327 174.17 358.923 175.889C359.519 177.609 360.463 178.958 361.754 179.938C363.045 180.918 364.714 181.407 366.76 181.407Z" fill="#0D0E11"/>
<path d="M399.308 187.046C395.394 187.046 392.206 186.176 389.742 184.436C387.279 182.697 385.769 180.248 385.213 177.089L391.59 176.099C391.987 177.779 392.901 179.108 394.331 180.088C395.782 181.048 397.579 181.527 399.725 181.527C401.672 181.527 403.191 181.128 404.284 180.328C405.397 179.528 405.953 178.428 405.953 177.029C405.953 176.209 405.754 175.549 405.357 175.05C404.979 174.53 404.175 174.04 402.943 173.58C401.711 173.12 399.834 172.55 397.311 171.871C394.55 171.151 392.355 170.381 390.726 169.562C389.117 168.722 387.964 167.752 387.269 166.653C386.594 165.533 386.256 164.183 386.256 162.604C386.256 160.645 386.773 158.935 387.806 157.476C388.839 156.016 390.289 154.887 392.156 154.087C394.043 153.287 396.248 152.887 398.771 152.887C401.235 152.887 403.43 153.277 405.357 154.057C407.284 154.837 408.843 155.946 410.035 157.386C411.227 158.805 411.942 160.475 412.181 162.394L405.804 163.564C405.585 162.004 404.86 160.775 403.628 159.875C402.397 158.975 400.798 158.485 398.831 158.405C396.944 158.325 395.414 158.645 394.242 159.365C393.07 160.065 392.484 161.034 392.484 162.274C392.484 162.994 392.702 163.604 393.139 164.103C393.596 164.603 394.47 165.083 395.762 165.543C397.053 166.003 398.96 166.553 401.483 167.192C404.185 167.892 406.33 168.672 407.919 169.532C409.509 170.371 410.641 171.381 411.316 172.56C412.012 173.72 412.359 175.13 412.359 176.789C412.359 179.988 411.197 182.497 408.873 184.316C406.569 186.136 403.38 187.046 399.308 187.046Z" fill="#0D0E11"/>
<path d="M425.747 174.45C425.747 173.01 425.856 171.661 426.075 170.401C426.313 169.142 426.75 167.942 427.386 166.802C427.922 165.723 428.548 164.853 429.263 164.193C429.998 163.514 430.793 162.854 431.647 162.214C432.521 161.554 433.435 160.715 434.388 159.695C435.183 158.815 435.709 157.926 435.968 157.026C436.246 156.126 436.385 155.156 436.385 154.117C436.385 153.357 436.295 152.647 436.117 151.988C435.938 151.328 435.64 150.758 435.223 150.278C434.587 149.478 433.782 148.919 432.809 148.599C431.836 148.259 430.822 148.089 429.77 148.089C428.816 148.089 427.902 148.219 427.028 148.479C426.174 148.739 425.459 149.139 424.883 149.678C424.267 150.198 423.81 150.848 423.512 151.628C423.234 152.387 423.105 153.217 423.125 154.117H416.569C416.728 152.237 417.205 150.478 417.999 148.839C418.794 147.199 419.867 145.87 421.217 144.85C422.37 143.93 423.681 143.251 425.151 142.811C426.621 142.351 428.091 142.121 429.561 142.121C431.667 142.121 433.653 142.451 435.521 143.111C437.408 143.77 438.977 144.84 440.229 146.32C441.143 147.359 441.828 148.549 442.285 149.888C442.762 151.208 443 152.577 443 153.997C443 155.896 442.593 157.656 441.778 159.275C440.984 160.894 439.961 162.374 438.709 163.714C438.053 164.413 437.388 165.053 436.713 165.633C436.037 166.193 435.411 166.742 434.835 167.282C434.259 167.822 433.782 168.412 433.405 169.052C432.869 169.971 432.561 170.801 432.481 171.541C432.402 172.261 432.362 173.23 432.362 174.45H425.747ZM425.777 186.176V178.918H432.362V186.176H425.777Z" fill="#0D0E11"/>
<path d="M195.038 44.3434C195.019 44.3434 195 44.3434 194.981 44.3433C191.786 44.3347 189.014 43.605 186.664 42.1542C184.3 40.6947 182.473 38.6853 181.182 36.1262C179.91 33.5471 179.274 30.5781 179.274 27.2193C179.274 23.8404 179.93 20.8715 181.241 18.3123C182.552 15.7332 184.39 13.7339 186.754 12.3144C189.088 10.8933 191.808 10.1737 194.917 10.1555C194.957 10.1553 194.997 10.1552 195.038 10.1552C195.079 10.1552 240.995 10.1554 241.035 10.1556C244.202 10.1739 246.952 10.9036 249.286 12.3445C251.65 13.804 253.478 15.8133 254.769 18.3724C256.06 20.9315 256.706 23.8805 256.706 27.2194C256.706 30.5982 256.05 33.5772 254.739 36.1563C253.448 38.7154 251.62 40.7248 249.256 42.1843C246.907 43.6152 244.144 44.3349 240.97 44.3434C240.951 44.3435 195.057 44.3434 195.038 44.3434ZM195.038 38.4354C195.047 38.4354 240.932 38.4355 240.942 38.4355C244.006 38.429 246.291 37.3894 247.796 35.3166C249.326 33.2173 250.091 30.5183 250.091 27.2194C250.091 23.8405 249.316 21.1415 247.767 19.1222C246.243 17.091 243.971 16.0714 240.949 16.0633C240.937 16.0632 195.05 16.0631 195.038 16.0631C195.026 16.0631 195.013 16.0631 195.001 16.0632C192.932 16.0687 191.226 16.5486 189.883 17.5026C188.532 18.4423 187.529 19.7519 186.873 21.4313C186.217 23.0907 185.89 25.02 185.89 27.2193C185.89 30.6181 186.664 33.3372 188.214 35.3765C189.758 37.4084 192.022 38.428 195.005 38.4354C195.016 38.4354 195.027 38.4354 195.038 38.4354Z" fill="#0D0E11"/>
<path d="M286.329 114.865C286.31 114.865 286.291 114.865 286.272 114.865C283.077 114.856 280.305 114.126 277.955 112.676C275.591 111.216 273.764 109.207 272.473 106.648C271.201 104.069 270.565 101.1 270.565 97.7408C270.565 94.3619 271.221 91.3929 272.532 88.8338C273.843 86.2547 275.681 84.2554 278.045 82.8359C280.379 81.4148 283.1 80.6952 286.208 80.677C286.248 80.6767 286.288 80.6766 286.329 80.6766C286.37 80.6766 332.286 80.6768 332.327 80.6771C335.493 80.6954 338.243 81.425 340.577 82.866C342.941 84.3255 344.769 86.3348 346.06 88.8939C347.351 91.453 347.997 94.402 347.997 97.7409C347.997 101.12 347.342 104.099 346.03 106.678C344.739 109.237 342.911 111.246 340.547 112.706C338.198 114.137 335.436 114.856 332.261 114.865C332.242 114.865 286.348 114.865 286.329 114.865ZM286.329 108.957C286.338 108.957 332.223 108.957 332.233 108.957C335.297 108.95 337.582 107.911 339.087 105.838C340.617 103.739 341.382 101.04 341.382 97.7409C341.382 94.362 340.607 91.6629 339.058 89.6436C337.534 87.6125 335.262 86.5929 332.24 86.5847C332.228 86.5847 286.341 86.5846 286.329 86.5846C286.317 86.5846 286.304 86.5846 286.292 86.5846C284.223 86.5902 282.517 87.07 281.174 88.0241C279.823 88.9638 278.82 90.2733 278.164 91.9527C277.508 93.6122 277.181 95.5415 277.181 97.7408C277.181 101.14 277.955 103.859 279.505 105.898C281.049 107.93 283.313 108.95 286.296 108.957C286.307 108.957 286.318 108.957 286.329 108.957Z" fill="#0D0E11"/>
<path d="M52.4196 187.232C52.4005 187.232 52.3814 187.232 52.3624 187.232C49.1683 187.224 46.3962 186.494 44.0462 185.043C41.6822 183.583 39.8546 181.574 38.5633 179.015C37.2919 176.436 36.6562 173.467 36.6562 170.108C36.6562 166.729 37.3118 163.76 38.6229 161.201C39.9341 158.622 41.7716 156.623 44.1356 155.203C46.4693 153.782 49.1903 153.063 52.2984 153.044C52.3387 153.044 52.3791 153.044 52.4196 153.044C52.4605 153.044 79.246 153.044 79.2868 153.044C82.4533 153.062 85.2036 153.792 87.5375 155.233C89.9015 156.692 91.7292 158.702 93.0204 161.261C94.3117 163.82 94.9573 166.769 94.9573 170.108C94.9573 173.487 94.3018 176.466 92.9906 179.045C91.6994 181.604 89.8717 183.613 87.5077 185.073C85.1579 186.503 82.3958 187.223 79.2215 187.232C79.2024 187.232 52.4387 187.232 52.4196 187.232ZM52.4196 181.324C52.4292 181.324 79.1835 181.324 79.1931 181.324C82.2577 181.317 84.5426 180.278 86.0476 178.205C87.5773 176.106 88.3421 173.407 88.3421 170.108C88.3421 166.729 87.5673 164.03 86.0178 162.011C84.4943 159.979 82.2219 158.96 79.2007 158.952C79.1885 158.952 52.4317 158.952 52.4196 158.952C52.4074 158.952 52.3952 158.952 52.383 158.952C50.3136 158.958 48.6074 159.437 47.2644 160.391C45.9136 161.331 44.9104 162.641 44.2548 164.32C43.5993 165.98 43.2715 167.909 43.2715 170.108C43.2715 173.507 44.0462 176.226 45.5957 178.265C47.1396 180.297 49.4034 181.317 52.387 181.324C52.3978 181.324 52.4087 181.324 52.4196 181.324Z" fill="#0D0E11"/>
<path d="M3.5758 187.048V143.863H20.9184C21.3356 143.863 21.8521 143.883 22.4679 143.923C23.0838 143.943 23.6698 144.002 24.226 144.102C26.6099 144.482 28.5965 145.302 30.1857 146.562C31.7948 147.821 32.9967 149.411 33.7913 151.33C34.5859 153.249 34.9832 155.369 34.9832 157.688C34.9832 160.027 34.5859 162.156 33.7913 164.076C32.9967 165.995 31.7948 167.584 30.1857 168.844C28.5965 170.104 26.6099 170.923 24.226 171.303C23.6698 171.383 23.0738 171.443 22.4381 171.483C21.8223 171.523 21.3157 171.543 20.9184 171.543H9.80365V187.048H3.5758ZM9.80365 165.605H20.68C21.0774 165.605 21.5144 165.585 21.9912 165.545C22.4878 165.505 22.9546 165.435 23.3917 165.335C24.6631 165.035 25.6862 164.485 26.4609 163.686C27.2357 162.866 27.7919 161.926 28.1296 160.867C28.4673 159.807 28.6362 158.747 28.6362 157.688C28.6362 156.628 28.4673 155.579 28.1296 154.539C27.7919 153.479 27.2357 152.55 26.4609 151.75C25.6862 150.93 24.6631 150.37 23.3917 150.07C22.9546 149.95 22.4878 149.87 21.9912 149.83C21.5144 149.79 21.0774 149.771 20.68 149.771H9.80365V165.605Z" fill="#0D0E11"/>
<path d="M374.428 114.68V98.756C374.428 97.4964 374.319 96.2068 374.1 94.8873C373.901 93.5477 373.504 92.3082 372.908 91.1686C372.332 90.029 371.508 89.1093 370.435 88.4095C369.382 87.7098 368.001 87.3599 366.293 87.3599C365.18 87.3599 364.127 87.5498 363.134 87.9297C362.141 88.2896 361.267 88.8793 360.512 89.6991C359.777 90.5188 359.191 91.5984 358.754 92.938C358.337 94.2775 358.128 95.9069 358.128 97.8263L354.254 96.3568C354.254 93.4178 354.801 90.8287 355.893 88.5894C356.986 86.3302 358.555 84.5708 360.601 83.3113C362.648 82.0517 365.121 81.4219 368.021 81.4219C370.246 81.4219 372.113 81.7818 373.623 82.5015C375.133 83.2213 376.355 84.171 377.288 85.3506C378.242 86.5102 378.967 87.7797 379.464 89.1593C379.96 90.5388 380.298 91.8883 380.477 93.2079C380.656 94.5274 380.745 95.687 380.745 96.6867V114.68H374.428ZM351.811 114.68V82.2916H357.383V91.6484H358.128V114.68H351.811Z" fill="#0D0E11"/>
</svg>
